<?xml version="1.0" encoding="utf-8"?>
<!-- Generator: Adobe Illustrator 24.2.3, SVG Export Plug-In . SVG Version: 6.00 Build 0)  -->
<svg version="1.1" xmlns="http://www.w3.org/2000/svg" xmlns:xlink="http://www.w3.org/1999/xlink" x="0px" y="0px"
	 viewBox="0 0 2834.6 1666.8" style="enable-background:new 0 0 2834.6 1666.8;" xml:space="preserve">
<style type="text/css">
	.st0{fill:#FFFFFF;stroke:#1D1D1B;stroke-width:5;stroke-miterlimit:10;}
	.st1{fill:#FFFFFF;}
	.st2{display:none;}
	.st3{display:inline;fill:#4AA4F4;}
	.st4{fill:#4AA4F4;}
</style>
<g id="Layer_2">
</g>
<g id="Layer_1">
	<path class="st0" d="M1136.3,1592.4H562c-119.8,0-217.7-98-217.7-217.7V927.1c0-119.8,98-217.7,217.7-217.7h574.2
		c119.8,0,217.7,98,217.7,217.7v447.6C1354,1494.4,1256,1592.4,1136.3,1592.4z"/>
	<path class="st0" d="M2272.6,1592.4h-574.2c-119.8,0-217.7-98-217.7-217.7V927.1c0-119.8,98-217.7,217.7-217.7h574.2
		c119.8,0,217.7,98,217.7,217.7v447.6C2490.3,1494.4,2392.4,1592.4,2272.6,1592.4z"/>
	<g>
		<path class="st1" d="M617.9,146.9c-1.4-5.1-3-8.9-5.2-11.6c-2.1-2.4-3.3-3.1-9.9-3.1H594v58.3c0,10.2,1.2,11.1,11.2,12.3v3h-37.4
			v-3c9.4-1.4,10.6-2,10.6-12.3v-58.3H569c-5.8,0-7.5,1.2-9.5,3.5c-1.9,2.3-3.7,6.7-5.2,11.4h-3.2c0.7-7.5,1.4-16.1,1.7-22.1h2.5
			c1.9,2.7,3.6,2.8,7.1,2.8h48.1c3.2,0,4.9-0.5,7.2-2.8h2.4c0,5.2,0.3,14.7,0.9,21.6L617.9,146.9z"/>
		<path class="st1" d="M669.9,126.1c21.7,0,39.6,16.5,39.6,39.9c0,25.3-17.9,41.6-40,41.6c-23.6,0-40.5-17.8-40.5-40.4
			C628.9,146.6,643.7,126.1,669.9,126.1z M667.8,130.1c-12,0-20.9,11.9-20.9,34.5c0,21.5,8.6,38.9,24.5,38.9
			c11.7,0,20.2-11.6,20.2-34.3C691.6,144.7,682.2,130.1,667.8,130.1z"/>
		<path class="st1" d="M783.4,146.9c-1.4-5.1-3-8.9-5.2-11.6c-2.1-2.4-3.3-3.1-9.9-3.1h-8.9v58.3c0,10.2,1.2,11.1,11.2,12.3v3h-37.4
			v-3c9.4-1.4,10.6-2,10.6-12.3v-58.3h-9.3c-5.8,0-7.5,1.2-9.5,3.5c-1.9,2.3-3.7,6.7-5.2,11.4h-3.2c0.7-7.5,1.4-16.1,1.7-22.1h2.5
			c1.9,2.7,3.6,2.8,7.1,2.8H776c3.2,0,4.9-0.5,7.2-2.8h2.4c0,5.2,0.3,14.7,0.9,21.6L783.4,146.9z"/>
		<path class="st1" d="M828.4,205.8v-3c8-1.5,8-2.8,6.1-8.6c-1.3-3.8-3.3-9.7-5.5-15.5h-22.6c-1.7,4.7-3.5,9.8-4.9,13.8
			c-2.7,7.8-0.8,8.9,9.2,10.3v3H783v-3c7.8-1.2,9.5-2.5,13.6-12.9l24.9-62.8l4.4-0.8c7.6,21.1,15.6,42.2,23.4,62.7
			c4.3,11.4,5.5,12.4,13,13.7v3L828.4,205.8L828.4,205.8z M817.9,147.5c-3.6,9.4-6.6,17.5-9.8,26.3h19.1L817.9,147.5z"/>
		<path class="st1" d="M927,185.5c-1,5.4-4.3,17.8-5.2,20.3h-58v-3c10.6-1.2,11.3-2.1,11.3-12.3v-47.3c0-10.4-1-11.2-10.1-12.4v-3
			H901v3c-9.2,1.3-10.2,2.1-10.2,12.4v49.2c0,7.1,1.2,8.9,7.5,8.9c1.2,0.1,5.6,0.1,6.8,0.1c6.6,0,8.4-1.2,11.4-4.2
			c2.4-2.4,5.3-7.6,7.5-12.6L927,185.5z"/>
		<path class="st1" d="M1030.5,206.6c-0.7,0-3.2,0-4.6-0.1c-14.8-0.6-18.9-3.6-22.8-9.4c-4.5-6.5-8.1-13.5-12-20.9
			c-2.3-4.2-4-5.4-8-5.4l-2.1-0.1v19.5c0,9.9,0.9,10.8,9.9,12.4v3h-35.1v-3c9-1.5,9.9-2.3,9.9-12.4v-47.3c0-9.8-0.9-11.1-9.9-12.3
			v-3h33.4c10.2,0,16.3,1.1,21.2,4.6c4.7,3.2,7.6,8.3,7.6,15c0,11.5-8.3,17-15.1,19.8c1.8,3.4,7.4,13,10.9,18.4
			c4.4,7,6.4,9.8,8.9,12.7c2.8,3.2,4.3,4.2,8.4,5.6L1030.5,206.6z M983.9,167.1c5.5,0,9.6-0.6,12.4-3.2c3.6-3.2,5.2-7.6,5.2-14.2
			c0-13.4-7.1-18.2-13.9-18.2c-2.8,0-4.5,0.4-5.2,1c-0.8,0.6-1.2,1.8-1.2,4.2v30.4H983.9z"/>
		<path class="st1" d="M1096.9,186.2c-0.6,3.8-3.3,16.4-4.2,19.5h-60.2v-3c10.6-1.3,11.4-1.9,11.4-12.3v-47.4
			c0-10.5-1-11.4-9.3-12.2v-3h37.5c12.1,0,16.6-0.1,17.9-0.2c0.1,3.5,0.7,12.1,1.2,18.3l-3.2,0.5c-1-3.5-2.8-8.1-5.2-10.8
			c-2.2-2.5-4.3-3.3-11-3.3h-8.5c-3.4,0-3.9,0.4-3.9,3.5v27.1h11.7c8.3,0,9-2.3,10.7-10.2h3.2v25.1h-3.2
			c-1.8-7.9-2.4-10.2-10.8-10.2h-11.6v23.4c0,8.4,1.1,10.3,8.6,10.4h7.7c6.9,0,8.7-0.9,11.5-4.1c2.5-2.9,4.7-7.1,6.7-11.7
			L1096.9,186.2z"/>
		<path class="st1" d="M1179.8,130.8c-8.3,1-9.9,2.6-14.8,14.4c-4.3,10.2-16,39.1-24.9,62.2h-4.5c-5.6-15.4-19.2-51.1-23.9-63.4
			c-4.1-10.3-5.3-12.1-13.3-13.2v-3h35.4l-0.1,3c-9,1.4-8.7,3-6.8,8.2c2.8,8.1,11.5,31.5,17.1,46.3c5.5-13.2,12.8-32.6,16.5-42.7
			c3.3-8.9,2.5-10.5-8.4-11.8v-3h27.6L1179.8,130.8L1179.8,130.8z"/>
		<path class="st1" d="M1244.8,186.2c-0.6,3.8-3.3,16.4-4.2,19.5h-60.2v-3c10.6-1.3,11.4-1.9,11.4-12.3v-47.4
			c0-10.5-1-11.4-9.3-12.2v-3h37.5c12.1,0,16.6-0.1,17.9-0.2c0.1,3.5,0.7,12.1,1.2,18.3l-3.2,0.5c-1-3.5-2.8-8.1-5.2-10.8
			c-2.2-2.5-4.3-3.3-11-3.3h-8.5c-3.4,0-3.9,0.4-3.9,3.5v27.1h11.7c8.3,0,9-2.3,10.7-10.2h3.2v25.1h-3.2
			c-1.8-7.9-2.4-10.2-10.8-10.2h-11.6v23.4c0,8.4,1.1,10.3,8.6,10.4h7.7c6.9,0,8.7-0.9,11.5-4.1c2.5-2.9,4.7-7.1,6.7-11.7
			L1244.8,186.2z"/>
		<path class="st1" d="M1333.6,130.8c-7.7,1.4-9.7,2.8-10,9.7c-0.2,4.1-0.5,7.6-0.5,19.2v47.6h-4.7l-52.2-62.7v29.1
			c0,10.8,0.2,14.9,0.5,18.6c0.5,6.9,2,9.3,12.2,10.4v3h-28.6v-3c8-1,9.9-2.8,10.5-10c0.3-4.3,0.7-8.8,0.7-19v-30.1
			c0-3.2-0.5-5.6-2.2-7.9c-2.7-3.7-5.2-4.3-10.3-5v-3h23.1l46.2,53.8v-21.9c0-11.6-0.3-15.1-0.5-18.9c-0.4-7-2.8-9-13-10v-3h28.8
			L1333.6,130.8L1333.6,130.8z"/>
		<path class="st1" d="M1420.7,130.8c-8.7,0.9-9.6,3.8-10,8.4c-0.3,3.6-0.5,7.9-0.5,16.6v14.9c0,11.6-1.3,21.5-8.1,28.7
			c-5.3,5.6-13.1,8.2-22.2,8.2c-7.8,0-15.6-1.7-21.3-6.4c-6.6-5.3-9.4-12.7-9.4-25.5v-30.8c0-11.8-0.9-12.9-9.9-14.1v-3h35.5v3
			c-9.1,1.3-9.8,2.3-9.8,14.1v32.3c0,14.7,7.1,22.9,20.2,22.9c14.3,0,20.2-8.9,20.2-29.6v-14.7c0-8.6-0.3-13.2-0.6-16.9
			c-0.5-5.7-2.8-7.4-12.4-8.1v-3h28.4L1420.7,130.8L1420.7,130.8z"/>
		<path class="st1" d="M1489,186.2c-0.6,3.8-3.3,16.4-4.2,19.5h-60.2v-3c10.6-1.3,11.4-1.9,11.4-12.3v-47.4c0-10.5-1-11.4-9.3-12.2
			v-3h37.5c12.1,0,16.6-0.1,17.9-0.2c0.1,3.5,0.7,12.1,1.2,18.3l-3.2,0.5c-1-3.5-2.8-8.1-5.2-10.8c-2.2-2.5-4.3-3.3-11-3.3h-8.5
			c-3.4,0-3.9,0.4-3.9,3.5v27.1h11.7c8.3,0,9-2.3,10.7-10.2h3.2v25.1h-3.2c-1.8-7.9-2.4-10.2-10.8-10.2h-11.6v23.4
			c0,8.4,1.1,10.3,8.6,10.4h7.7c6.9,0,8.7-0.9,11.5-4.1c2.5-2.9,4.7-7.1,6.7-11.7L1489,186.2z"/>
		<path class="st1" d="M1598.1,172.2c-6.6,1.5-7.7,2.1-7.7,9.3v10.4c0,4.3,0.2,8.3,0.8,11.6c-6.6,1.2-19,4-28.5,4
			c-28,0-43.5-16.8-43.5-40.4c0-27.4,21.5-41.1,46.4-41.1c10.8,0,20.2,2.2,23.8,2.5c0.2,5.3,0.8,12.8,1.6,19.7l-3.2,0.6
			c-2.2-8.4-6.1-14.5-13.8-17.1c-3.4-1.2-7.6-1.6-11.5-1.6c-15.3,0-25.7,12.5-25.7,34.5c0,21.3,6.8,39.1,26.7,39.1
			c2.5,0,6.2-0.4,8.4-1.8c1.8-1.1,2.9-2.8,2.9-7.8v-11.4c0-8-1.3-9-11.2-10.4v-3h34.4L1598.1,172.2L1598.1,172.2z"/>
		<path class="st1" d="M1668.7,186.2c-0.6,3.8-3.3,16.4-4.2,19.5h-60.2v-3c10.6-1.3,11.4-1.9,11.4-12.3v-47.4
			c0-10.5-1-11.4-9.3-12.2v-3h37.5c12.1,0,16.6-0.1,17.9-0.2c0.1,3.5,0.7,12.1,1.2,18.3l-3.2,0.5c-1-3.5-2.8-8.1-5.2-10.8
			c-2.2-2.5-4.3-3.3-11-3.3h-8.5c-3.4,0-3.9,0.4-3.9,3.5v27.1h11.7c8.3,0,9-2.3,10.7-10.2h3.2v25.1h-3.2
			c-1.8-7.9-2.4-10.2-10.8-10.2h-11.6v23.4c0,8.4,1.1,10.3,8.6,10.4h7.7c6.9,0,8.7-0.9,11.5-4.1c2.5-2.9,4.7-7.1,6.7-11.7
			L1668.7,186.2z"/>
		<path class="st1" d="M1757.4,130.8c-7.7,1.4-9.7,2.8-10,9.7c-0.2,4.1-0.5,7.6-0.5,19.2v47.6h-4.7l-52.2-62.7v29.1
			c0,10.8,0.2,14.9,0.5,18.6c0.5,6.9,2,9.3,12.2,10.4v3h-28.6v-3c8-1,9.9-2.8,10.5-10c0.3-4.3,0.7-8.8,0.7-19v-30.1
			c0-3.2-0.5-5.6-2.2-7.9c-2.7-3.7-5.2-4.3-10.3-5v-3h23.1l46.2,53.8v-21.9c0-11.6-0.3-15.1-0.5-18.9c-0.4-7-2.8-9-13-10v-3h28.8
			V130.8z"/>
		<path class="st1" d="M1827.2,186.2c-0.6,3.8-3.3,16.4-4.2,19.5h-60.2v-3c10.6-1.3,11.4-1.9,11.4-12.3v-47.4
			c0-10.5-1-11.4-9.3-12.2v-3h37.5c12.1,0,16.6-0.1,17.9-0.2c0.1,3.5,0.7,12.1,1.2,18.3l-3.2,0.5c-1-3.5-2.8-8.1-5.2-10.8
			c-2.2-2.5-4.3-3.3-11-3.3h-8.5c-3.4,0-3.9,0.4-3.9,3.5v27.1h11.7c8.3,0,9-2.3,10.7-10.2h3.2v25.1h-3.2
			c-1.8-7.9-2.4-10.2-10.8-10.2h-11.6v23.4c0,8.4,1.1,10.3,8.6,10.4h7.7c6.9,0,8.7-0.9,11.5-4.1c2.5-2.9,4.7-7.1,6.7-11.7
			L1827.2,186.2z"/>
		<path class="st1" d="M1908.6,206.6c-0.7,0-3.2,0-4.6-0.1c-14.8-0.6-18.9-3.6-22.8-9.4c-4.5-6.5-8.1-13.5-12-20.9
			c-2.3-4.2-4-5.4-8-5.4l-2.1-0.1v19.5c0,9.9,0.9,10.8,9.9,12.4v3h-35.1v-3c9-1.5,9.9-2.3,9.9-12.4v-47.3c0-9.8-0.9-11.1-9.9-12.3
			v-3h33.4c10.2,0,16.3,1.1,21.2,4.6c4.7,3.2,7.6,8.3,7.6,15c0,11.5-8.3,17-15.1,19.8c1.8,3.4,7.4,13,10.9,18.4
			c4.4,7,6.4,9.8,8.9,12.7c2.8,3.2,4.3,4.2,8.4,5.6L1908.6,206.6z M1861.9,167.1c5.5,0,9.6-0.6,12.4-3.2c3.6-3.2,5.2-7.6,5.2-14.2
			c0-13.4-7.1-18.2-13.9-18.2c-2.8,0-4.5,0.4-5.2,1c-0.8,0.6-1.2,1.8-1.2,4.2v30.4H1861.9z"/>
		<path class="st1" d="M1955,205.8v-3c8-1.5,8-2.8,6.1-8.6c-1.3-3.8-3.3-9.7-5.5-15.5H1933c-1.7,4.7-3.5,9.8-4.9,13.8
			c-2.7,7.8-0.8,8.9,9.2,10.3v3h-27.6v-3c7.8-1.2,9.5-2.5,13.6-12.9l24.9-62.8l4.4-0.8c7.6,21.1,15.6,42.2,23.4,62.7
			c4.3,11.4,5.4,12.4,13,13.7v3L1955,205.8L1955,205.8z M1944.6,147.5c-3.6,9.4-6.6,17.5-9.8,26.3h19.1L1944.6,147.5z"/>
		<path class="st1" d="M2048.3,146.9c-1.4-5.1-3-8.9-5.2-11.6c-2.1-2.4-3.3-3.1-9.9-3.1h-8.9v58.3c0,10.2,1.2,11.1,11.2,12.3v3H1998
			v-3c9.4-1.4,10.6-2,10.6-12.3v-58.3h-9.3c-5.8,0-7.5,1.2-9.4,3.5c-1.9,2.3-3.7,6.7-5.2,11.4h-3.2c0.7-7.5,1.4-16.1,1.7-22.1h2.5
			c1.9,2.7,3.6,2.8,7.1,2.8h48.1c3.2,0,4.9-0.5,7.2-2.8h2.4c0.1,5.2,0.3,14.7,0.9,21.6L2048.3,146.9z"/>
		<path class="st1" d="M2121.5,186.2c-0.6,3.8-3.3,16.4-4.2,19.5h-60.2v-3c10.6-1.3,11.4-1.9,11.4-12.3v-47.4
			c0-10.5-1-11.4-9.3-12.2v-3h37.5c12.1,0,16.6-0.1,17.9-0.2c0.1,3.5,0.6,12.1,1.2,18.3l-3.1,0.5c-1-3.5-2.8-8.1-5.2-10.8
			c-2.2-2.5-4.3-3.3-11-3.3h-8.5c-3.4,0-3.9,0.4-3.9,3.5v27.1h11.7c8.3,0,9-2.3,10.7-10.2h3.1v25.1h-3.1
			c-1.8-7.9-2.4-10.2-10.8-10.2h-11.6v23.4c0,8.4,1.1,10.3,8.6,10.4h7.7c6.9,0,8.6-0.9,11.5-4.1c2.5-2.9,4.7-7.1,6.6-11.7
			L2121.5,186.2z"/>
		<path class="st1" d="M2163.9,127.8c14.8,0,26.2,3.3,33.6,10.2c6.4,5.9,10.7,14.1,10.7,26c0,14.2-5.6,24.8-14.6,31.7
			c-8.8,6.7-19.6,10-32.4,10h-33.1v-3c8.8-1.1,9.9-2,9.9-12.4v-47.1c0-10.5-1.2-11.3-9.9-12.4v-3
			C2128.2,127.8,2163.9,127.8,2163.9,127.8z M2153.8,188.6c0.1,9.3,2.8,12.8,12.4,12.8c15.8,0,24.5-11.6,24.5-35.4
			c0-11.9-3.3-22-9.1-27.5c-4.9-5-10.9-6.8-18.9-6.8c-4.6,0-6.8,0.9-7.7,1.8c-1.1,1-1.3,3.1-1.3,6.9L2153.8,188.6z"/>
	</g>
	<g class="st2">
		<path class="st3" d="M626.3,340.9c-5.5-19.1-15.8-39.9-44.1-39.9c-20.6,0-28.7,14.5-28.7,30.1c0,16.7,13,26.2,28.6,32.4
			c44.4,17,59.5,35.3,59.2,61.7c-0.3,34.8-31,55.7-64.8,56.3c-24.2,0.7-43.4-7.2-51-10c-1.6-10.4-4.8-31.2-6.1-43l7.2-1.9
			c7.3,22,20.4,45.9,53.1,45.3c19.1-0.3,29.5-13.7,29.5-30.6c0-13.4-5.1-27.1-29.4-38c-38.4-17.3-55.6-31.8-55.6-59.9
			c0-28.9,24.4-51.4,62.5-51.4c16.6,0,31,3.6,41.8,5.2c1.3,11.8,2.8,29.8,5,41.8L626.3,340.9z M584,272.1h9.8l-17.3,234.2l-9.8,0.1
			L584,272.1z"/>
		<path class="st3" d="M680.4,479.8v-7.6c30.3-3,31.9-5.5,31.9-28.3V333.1c0-15.6-3.1-17.9-17-19.8l-9.1-1.3v-6.7
			c21.8-3,46.4-8.7,64.2-15.3v153.9c0,23.3,1.3,25.5,31.6,28.3v7.6L680.4,479.8L680.4,479.8z"/>
		<path class="st3" d="M835.4,483.4c-12.2,0-21.4-9.3-21.4-22.3c0-12.7,9.2-22.1,21.4-22.1c12.4,0,21.7,9.5,21.7,22.1
			C857.1,474.1,847.9,483.4,835.4,483.4z"/>
		<path class="st3" d="M1007.8,432.1c-4.6,15.5-10.5,34.9-13.3,47.7H876.2v-6.1c16-15.9,34.8-34.8,49.6-51.9
			c21.8-25.1,31.6-45.8,31.6-69.6c0-21.1-10.6-37-32.5-37c-19.4,0-30.8,12.7-39.8,25.3l-6.1-5.1l17.3-25.7
			c8.8-11.6,25.6-19.7,44.6-19.7c29.4,0,53.7,19.7,53.7,52.8c0,23.5-10.6,40.2-40,67.8c-12.7,12.1-28.7,27.1-40.8,38.2
			c8.6,0,46.9,0,53.9,0c18.5-0.2,23-1.7,33.8-18.9L1007.8,432.1z"/>
		<path class="st3" d="M1239.8,479.8v-7.6c22.1-3.4,23.6-5.5,23.7-34.9l0.4-120.6c-22.2,52.2-56.8,133.3-69,163h-6.9
			c-11.6-29.5-42.3-106.8-64-159.3c-4.1,92.4-4.4,120.4-4.2,130.6c0.5,14.5,6.8,18.2,29.5,21.1v7.6h-72v-7.6
			c19.2-2.3,25-6.6,27-20.9c1.4-9.5,2.6-26,9.6-135.6c0.6-10.4-1.9-20.1-27.6-22.6v-7.6h61.6l59.3,135.3l60.2-135.3h59.4v7.6
			c-24.4,3.5-26.8,5.8-26.3,32l1.7,112.3c0.3,28.6,1.5,30.9,25.5,34.9v7.6L1239.8,479.8L1239.8,479.8z"/>
		<path class="st3" d="M1348.3,479.8v-7.6c22.6-3.1,24.6-5,24.6-31.6V324.7c0-26.6-2.5-29-24.6-31.6v-7.6h88.4v7.6
			c-22.1,3.1-24.7,4.9-24.7,31.6v115.7c0,27,2.2,28.6,24.7,31.8v7.6L1348.3,479.8L1348.3,479.8z"/>
		<path class="st3" d="M1612.7,429.3c-2.6,13.4-10.8,44.4-12.9,50.5h-144.4v-7.6c26.3-3,28.2-5.2,28.2-30.6V323.9
			c0-25.9-2.5-27.8-25.1-30.8v-7.6h89.4v7.6c-22.8,3.3-25.3,5.4-25.3,30.8v122.6c0,17.8,3.1,22.1,18.7,22.2
			c3.1,0.1,13.8,0.1,16.9,0.1c16.5,0,20.9-2.9,28.4-10.5c6-6,13.3-19,18.7-31.3L1612.7,429.3z"/>
		<path class="st3" d="M1779.2,429.3c-2.6,13.4-10.8,44.4-12.9,50.5h-144.4v-7.6c26.3-3,28.2-5.2,28.2-30.6V323.9
			c0-25.9-2.5-27.8-25.1-30.8v-7.6h89.4v7.6c-22.8,3.3-25.3,5.4-25.3,30.8v122.6c0,17.8,3.1,22.1,18.7,22.2
			c3.1,0.1,13.8,0.1,16.9,0.1c16.5,0,20.9-2.9,28.4-10.5c6-6,13.3-19,18.7-31.3L1779.2,429.3z"/>
		<path class="st3" d="M1791.9,479.8v-7.6c22.6-3.1,24.6-5,24.6-31.6V324.7c0-26.6-2.5-29-24.6-31.6v-7.6h88.4v7.6
			c-22.1,3.1-24.7,4.9-24.7,31.6v115.7c0,27,2.2,28.6,24.7,31.8v7.6L1791.9,479.8L1791.9,479.8z"/>
		<path class="st3" d="M2005.9,281.3c54,0,98.6,41,98.6,99.4c0,63-44.6,103.6-99.8,103.6c-58.8,0-101-44.3-101-100.7
			C1903.8,332.5,1940.6,281.3,2005.9,281.3z M2000.6,291.3c-29.8,0-52.1,29.6-52.1,86c0,53.5,21.5,97,61,97
			c29.2,0,50.4-29,50.4-85.5C2059.9,327.7,2036.4,291.3,2000.6,291.3z"/>
		<path class="st3" d="M2332.2,293.1c-19.1,3.4-24.1,6.9-24.8,24.2c-0.6,10.3-1.3,19-1.3,47.8v118.5h-11.6l-130-156.1V400
			c0,27,0.4,37,1.2,46.3c1.2,17.1,5,23.2,30.3,25.9v7.6h-71.3v-7.6c20-2.5,24.7-7,26.1-24.8c0.9-10.8,1.6-22,1.6-47.4v-75
			c0-7.9-1.3-14-5.4-19.6c-6.7-9.1-12.9-10.7-25.8-12.4v-7.6h57.6l115,134.1v-54.5c0-28.8-0.6-37.5-1.2-47.1
			c-0.9-17.3-6.8-22.5-32.3-24.9v-7.6h71.8L2332.2,293.1L2332.2,293.1z"/>
	</g>
	<g>
		<path d="M536.4,819.8c-1.1,4.3-3.5,11.6-4.8,14.7c-2.4,0.5-9.9,2.3-16.6,2.3c-24.8,0-35.2-15.6-35.2-31.5
			c0-19,14.2-32.4,36.5-32.4c7.8,0,14.8,1.8,17.2,2c0.3,4.6,1,10.9,1.5,14.9l-2.6,0.5c-1.9-7-4.5-10.5-9.6-12.7
			c-2.4-1.1-5.4-1.5-8.7-1.5c-13.9,0-20.3,12.1-20.3,27.2c0,17.7,8.6,30.1,22.1,30.1c8.4,0,13.5-4.8,18.1-14.6L536.4,819.8z"/>
		<path d="M592.1,819.4c-0.8,4.2-3.4,14-4.1,15.9h-45.5v-2.4c8.3-0.9,8.9-1.6,8.9-9.7v-37c0-8.2-0.8-8.8-7.9-9.7v-2.4h28.1v2.4
			c-7.2,1-8,1.7-8,9.7v38.6c0,5.6,1,7,5.9,7c1,0,4.4,0,5.3,0c5.2,0,6.6-0.9,8.9-3.3c1.9-1.9,4.2-6,5.9-9.8L592.1,819.4z"/>
		<path d="M596.1,835.3v-2.4c7.1-1,7.7-1.6,7.7-10v-36.5c0-8.4-0.8-9.1-7.7-10v-2.4h27.8v2.4c-7,1-7.8,1.5-7.8,10v36.4
			c0,8.5,0.7,9,7.8,10v2.4L596.1,835.3L596.1,835.3z"/>
		<path d="M680.2,820c-0.5,3-2.6,12.9-3.3,15.3h-47.2V833c8.3-1,8.9-1.5,8.9-9.6v-37.2c0-8.3-0.8-8.9-7.3-9.6v-2.4h29.4
			c9.5,0,13-0.1,14-0.2c0.1,2.7,0.5,9.5,0.9,14.3l-2.5,0.4c-0.8-2.7-2.2-6.4-4-8.5c-1.7-2-3.4-2.5-8.6-2.5h-6.6
			c-2.7,0-3.1,0.3-3.1,2.8v21.2h9.2c6.5,0,7-1.8,8.4-8h2.5v19.7h-2.5c-1.4-6.2-1.9-8-8.4-8h-9.1v18.3c0,6.5,0.9,8.1,6.7,8.2h6
			c5.4,0,6.8-0.7,9-3.3c2-2.3,3.7-5.6,5.2-9.1L680.2,820z"/>
		<path d="M749.7,776.6c-6,1.1-7.6,2.2-7.8,7.6c-0.2,3.3-0.4,6-0.4,15v37.3h-3.7L697,787.4v22.8c0,8.5,0.1,11.6,0.4,14.6
			c0.4,5.4,1.6,7.3,9.5,8.1v2.4h-22.4v-2.4c6.3-0.8,7.8-2.2,8.2-7.8c0.3-3.4,0.5-6.9,0.5-14.9v-23.6c0-2.5-0.4-4.4-1.7-6.2
			c-2.1-2.9-4-3.4-8.1-3.9v-2.4h18.1l36.2,42.2v-17.1c0-9.1-0.2-11.8-0.4-14.8c-0.3-5.5-2.2-7.1-10.2-7.8v-2.4h22.6L749.7,776.6
			L749.7,776.6z"/>
		<path d="M807.6,789.1c-1.1-4-2.4-7-4.1-9.1c-1.6-1.9-2.6-2.5-7.7-2.5h-7v45.7c0,8,0.9,8.7,8.7,9.7v2.4h-29.3v-2.4
			c7.4-1.1,8.3-1.5,8.3-9.7v-45.7h-7.3c-4.6,0-5.9,1-7.4,2.7c-1.5,1.8-2.9,5.2-4.1,8.9h-2.5c0.5-5.9,1.1-12.6,1.3-17.3h2
			c1.5,2.1,2.8,2.2,5.6,2.2h37.7c2.5,0,3.9-0.4,5.6-2.2h1.9c0,4.1,0.3,11.5,0.7,16.9L807.6,789.1z"/>
		<path d="M850.7,788.5c-1.9-7-5.6-12.7-13.5-12.7c-5.6,0-8.9,3.9-8.9,9.5c0,5.6,3.4,8.5,11.5,13c9,4.9,15.8,9.9,15.8,19.5
			c0,10.9-9.2,18.8-22.1,18.8c-5.2,0-10.1-1.2-14.9-2.5c-0.6-2-2.1-12.5-2.4-15.3l2.5-0.5c2,7.2,7.4,15.4,16.3,15.4
			c6.2,0,9.3-4,9.3-10.2c0-5.7-3.4-9.5-10.7-13.6c-9-5.2-15.7-10-15.7-19.7c0-9.8,7.7-17.4,20.9-17.4c6.1,0,10.6,1.3,12.6,1.4
			c0.4,3.5,1,8.5,1.7,13.7L850.7,788.5z"/>
		<path d="M947.3,776.6c-7.1,0.9-7.8,1.5-7.8,9.6v37.2c0,8,0.7,8.6,7.8,9.5v2.4h-27.8v-2.4c7.2-1,7.7-1.5,7.7-9.5v-19h-25.7v19
			c0,8.1,0.8,8.6,7.7,9.5v2.4h-27.8v-2.4c6.9-0.9,7.7-1.4,7.7-9.5v-37.2c0-8.1-0.8-8.7-7.7-9.6v-2.4h27.8v2.4
			c-6.9,0.9-7.7,1.5-7.7,9.6v14.4h25.7v-14.4c0-8-0.9-8.6-7.7-9.6v-2.4h27.8V776.6z"/>
		<path d="M1003.5,820c-0.5,3-2.6,12.9-3.3,15.3h-47.2V833c8.3-1,8.9-1.5,8.9-9.6v-37.2c0-8.3-0.8-8.9-7.3-9.6v-2.4h29.4
			c9.5,0,13-0.1,14-0.2c0.1,2.7,0.5,9.5,0.9,14.3l-2.5,0.4c-0.8-2.7-2.2-6.4-4-8.5c-1.7-2-3.4-2.5-8.6-2.5h-6.6
			c-2.7,0-3.1,0.3-3.1,2.8v21.2h9.2c6.5,0,7-1.8,8.4-8h2.5v19.7h-2.5c-1.4-6.2-1.9-8-8.4-8h-9.1v18.3c0,6.5,0.9,8.1,6.7,8.2h6
			c5.4,0,6.8-0.7,9-3.3c2-2.3,3.7-5.6,5.2-9.1L1003.5,820z"/>
		<path d="M1057.2,819.4c-0.8,4.2-3.4,14-4.1,15.9h-45.5v-2.4c8.3-0.9,8.9-1.6,8.9-9.7v-37c0-8.2-0.8-8.8-7.9-9.7v-2.4h28.1v2.4
			c-7.2,1-8,1.7-8,9.7v38.6c0,5.6,1,7,5.9,7c1,0,4.4,0,5.3,0c5.2,0,6.6-0.9,8.9-3.3c1.9-1.9,4.2-6,5.9-9.8L1057.2,819.4z"/>
		<path d="M1086.9,774.2c7.4,0,12.8,1.4,16.4,3.8c4.6,3,7,7.5,7,13.6c0,13.5-11.7,19.2-21.4,19.3c-0.6,0-1.6-0.1-2.2-0.2l-5.6-1.3
			v14c0,8.2,0.8,8.7,8.5,9.6v2.4h-28.6v-2.4c7-1,7.7-1.4,7.7-9.6v-37c0-8.2-0.9-8.9-7.7-9.7v-2.4L1086.9,774.2L1086.9,774.2z
			 M1081.2,806.5c1.1,0.5,3,0.7,5,0.7c3.5,0,11.2-1.9,11.2-15.6c0-10.9-5.2-14.5-11.6-14.5c-1.8,0-3.1,0.4-3.7,0.8
			c-0.8,0.6-0.9,1.5-0.9,3L1081.2,806.5L1081.2,806.5z"/>
		<path d="M1166.4,820c-0.5,3-2.6,12.9-3.3,15.3h-47.2V833c8.3-1,8.9-1.5,8.9-9.6v-37.2c0-8.3-0.8-8.9-7.3-9.6v-2.4h29.4
			c9.5,0,13-0.1,14-0.2c0.1,2.7,0.5,9.5,0.9,14.3l-2.5,0.4c-0.8-2.7-2.2-6.4-4-8.5c-1.7-2-3.4-2.5-8.6-2.5h-6.6
			c-2.7,0-3.1,0.3-3.1,2.8v21.2h9.2c6.5,0,7-1.8,8.4-8h2.5v19.7h-2.5c-1.4-6.2-1.9-8-8.4-8h-9.1v18.3c0,6.5,0.9,8.1,6.7,8.2h6.1
			c5.4,0,6.8-0.7,9-3.3c2-2.3,3.7-5.6,5.2-9.1L1166.4,820z"/>
		<path d="M1199.6,774.2c11.6,0,20.5,2.6,26.4,8c5,4.6,8.4,11.1,8.4,20.4c0,11.1-4.4,19.4-11.4,24.9c-6.9,5.3-15.3,7.8-25.4,7.8
			h-25.9v-2.4c6.9-0.9,7.7-1.6,7.7-9.7v-36.9c0-8.2-0.9-8.9-7.7-9.7v-2.4L1199.6,774.2L1199.6,774.2z M1191.7,821.8
			c0.1,7.3,2.2,10,9.7,10c12.4,0,19.2-9.1,19.2-27.8c0-9.3-2.6-17.2-7.1-21.6c-3.8-3.9-8.6-5.3-14.8-5.3c-3.6,0-5.3,0.7-6.1,1.4
			c-0.9,0.8-1,2.4-1,5.4L1191.7,821.8z"/>
	</g>
	<g>
		<path d="M685.5,1256.6v-8.1c32.3-3.2,34-5.8,34-30.2v-118.2c0-16.6-3.3-19.1-18.1-21.1l-9.7-1.4v-7.2c23.3-3.2,49.5-9.2,68.4-16.3
			v164.1c0,24.8,1.4,27.2,33.7,30.2v8.1H685.5z"/>
		<path d="M968.8,1062c-30.4,63.9-61.6,129.6-90.7,194.6l-27.5,3.8l-1.8-3.3c35.8-55.6,67.4-113.3,94-165.9h-71.2
			c-21.8,0-23.9,1.7-33.3,22.2H830c4.1-23,6.3-40.9,8.1-55.4h128.5L968.8,1062z"/>
	</g>
	<g>
		<path d="M1700.3,776.6c-7.1,0.9-7.8,1.5-7.8,9.6v37.2c0,8,0.7,8.6,7.8,9.5v2.4h-27.8v-2.4c7.2-1,7.7-1.5,7.7-9.5v-19h-25.7v19
			c0,8.1,0.8,8.6,7.7,9.5v2.4h-27.8v-2.4c6.9-0.9,7.7-1.4,7.7-9.5v-37.2c0-8.1-0.8-8.7-7.7-9.6v-2.4h27.8v2.4
			c-6.9,0.9-7.7,1.5-7.7,9.6v14.4h25.7v-14.4c0-8-0.9-8.6-7.7-9.6v-2.4h27.8V776.6z"/>
		<path d="M1739.9,772.9c17,0,31,12.9,31,31.3c0,19.8-14,32.6-31.4,32.6c-18.5,0-31.8-13.9-31.8-31.7
			C1707.7,789,1719.3,772.9,1739.9,772.9z M1738.2,776c-9.4,0-16.4,9.3-16.4,27c0,16.8,6.8,30.5,19.2,30.5c9.2,0,15.8-9.1,15.8-26.9
			C1756.9,787.5,1749.5,776,1738.2,776z"/>
		<path d="M1841.3,776.6c-6.8,0.7-7.5,3-7.8,6.6c-0.2,2.8-0.4,6.2-0.4,13v11.6c0,9.1-1.1,16.8-6.3,22.5c-4.2,4.4-10.3,6.4-17.4,6.4
			c-6.2,0-12.2-1.3-16.7-5c-5.2-4.1-7.4-9.9-7.4-20v-24.2c0-9.2-0.7-10.1-7.8-11v-2.4h27.8v2.4c-7.2,1-7.7,1.8-7.7,11v25.3
			c0,11.5,5.6,18,15.8,18c11.3,0,15.8-7,15.8-23.2v-11.5c0-6.8-0.2-10.3-0.5-13.2c-0.4-4.5-2.2-5.8-9.7-6.4v-2.4h22.3L1841.3,776.6
			L1841.3,776.6z"/>
		<path d="M1904.1,835.9c-0.5,0-2.5,0-3.6,0c-11.6-0.5-14.8-2.8-17.8-7.4c-3.5-5.1-6.3-10.6-9.4-16.3c-1.8-3.3-3.2-4.2-6.3-4.2
			l-1.6,0v15.3c0,7.8,0.7,8.5,7.7,9.7v2.4h-27.5v-2.4c7-1.2,7.7-1.8,7.7-9.7v-37.1c0-7.7-0.7-8.7-7.7-9.6v-2.4h26.2
			c8,0,12.8,0.9,16.6,3.6c3.7,2.5,5.9,6.5,5.9,11.7c0,9-6.5,13.3-11.9,15.5c1.4,2.7,5.8,10.2,8.5,14.5c3.4,5.5,5.1,7.7,7,9.9
			c2.2,2.5,3.3,3.3,6.6,4.4L1904.1,835.9z M1867.6,805c4.3,0,7.5-0.5,9.7-2.5c2.8-2.5,4.1-6,4.1-11.1c0-10.5-5.6-14.3-10.9-14.3
			c-2.2,0-3.5,0.3-4.1,0.8c-0.7,0.5-0.9,1.4-0.9,3.3V805L1867.6,805L1867.6,805z"/>
		<path d="M1942.8,788.5c-1.9-7-5.6-12.7-13.5-12.7c-5.6,0-8.9,3.9-8.9,9.5c0,5.6,3.4,8.5,11.6,13c9,4.9,15.8,9.9,15.8,19.5
			c0,10.9-9.2,18.8-22.1,18.8c-5.2,0-10.1-1.2-14.9-2.5c-0.6-2-2.1-12.5-2.4-15.3l2.5-0.5c2,7.2,7.4,15.4,16.3,15.4
			c6.2,0,9.3-4,9.3-10.2c0-5.7-3.4-9.5-10.7-13.6c-9.1-5.2-15.7-10-15.7-19.7c0-9.8,7.7-17.4,20.9-17.4c6.1,0,10.6,1.3,12.6,1.4
			c0.4,3.5,1,8.5,1.7,13.7L1942.8,788.5z"/>
		<path d="M2058.7,776.5c-6.8,1.1-7.7,2.4-10.5,10.7c-2.4,7.2-9.7,30.4-15.5,49.3h-3.8c-5.1-14.2-10.4-28.2-16-42.7
			c-5.2,14.7-10.3,29-14.8,42.7h-3.9c-4.5-15.3-10-33.1-15.2-49.8c-2.5-7.8-3.6-9.3-9.6-10.2v-2.3h27.5v2.3c-7.1,1-7.3,2.5-5.9,7.6
			c3.2,10.8,6.8,22.7,10,33.1c4.6-13,10.7-31.4,14.2-42.5h3.5c5.4,14.5,10.9,28.6,16.2,42.5c3.7-11.3,7.2-23.7,9.4-31.9
			c1.6-6.1,0.8-7.8-7.7-8.8v-2.3h22L2058.7,776.5L2058.7,776.5z"/>
		<path d="M2091.9,772.9c17,0,31,12.9,31,31.3c0,19.8-14,32.6-31.4,32.6c-18.5,0-31.8-13.9-31.8-31.7
			C2059.8,789,2071.4,772.9,2091.9,772.9z M2090.3,776c-9.4,0-16.4,9.3-16.4,27c0,16.8,6.8,30.5,19.2,30.5c9.2,0,15.8-9.1,15.8-26.9
			C2108.9,787.5,2101.5,776,2090.3,776z"/>
		<path d="M2188.9,835.9c-0.5,0-2.5,0-3.6,0c-11.6-0.5-14.8-2.8-17.8-7.4c-3.5-5.1-6.3-10.6-9.4-16.3c-1.8-3.3-3.1-4.2-6.3-4.2
			l-1.6,0v15.3c0,7.8,0.7,8.5,7.7,9.7v2.4h-27.5v-2.4c7-1.2,7.7-1.8,7.7-9.7v-37.1c0-7.7-0.7-8.7-7.7-9.6v-2.4h26.2
			c8,0,12.8,0.9,16.6,3.6c3.7,2.5,5.9,6.5,5.9,11.7c0,9-6.5,13.3-11.9,15.5c1.4,2.7,5.8,10.2,8.5,14.5c3.4,5.5,5.1,7.7,7,9.9
			c2.2,2.5,3.4,3.3,6.6,4.4L2188.9,835.9z M2152.3,805c4.3,0,7.5-0.5,9.7-2.5c2.8-2.5,4.1-6,4.1-11.1c0-10.5-5.6-14.3-10.9-14.3
			c-2.2,0-3.5,0.3-4.1,0.8c-0.7,0.5-0.9,1.4-0.9,3.3V805L2152.3,805L2152.3,805z"/>
		<path d="M2191.5,774.2h27.5v2.4c-6.8,1.1-7.7,1.6-7.7,9.7v16.6c1.5-0.5,3.4-1.8,5.7-3.9c6.6-6.1,12-12.3,15.8-16.8
			c2.7-3.2,2.2-4.2-2.7-5.2l-1.9-0.3v-2.4h23.1v2.4c-6.9,1-9.6,1.8-14.5,7c-4.7,4.7-9.7,9.8-14.6,15c6.2,8.6,13.8,18.8,21,27.5
			c4.3,5.3,5.8,6.2,10.5,6.9v2.4h-18.8c-4.8-6.4-13.5-18.2-19.3-26.2c-2-2.8-3.2-3.7-4.3-3.7v17.8c0,8.2,0.7,8.5,7.7,9.7v2.4h-27.5
			v-2.4c6.8-1,7.7-1.5,7.7-9.7v-36.9c0-8.1-0.9-8.8-7.7-9.7L2191.5,774.2L2191.5,774.2z"/>
		<path d="M2305.4,820c-0.5,3-2.6,12.9-3.3,15.3h-47.2V833c8.3-1,8.9-1.5,8.9-9.6v-37.2c0-8.3-0.8-8.9-7.3-9.6v-2.4h29.4
			c9.5,0,13-0.1,14-0.2c0.1,2.7,0.5,9.5,0.9,14.3l-2.5,0.4c-0.8-2.7-2.2-6.4-4-8.5c-1.7-2-3.4-2.5-8.6-2.5h-6.6
			c-2.7,0-3.1,0.3-3.1,2.8v21.2h9.2c6.5,0,7-1.8,8.4-8h2.5v19.7h-2.5c-1.4-6.2-1.9-8-8.4-8h-9.1v18.3c0,6.5,0.9,8.1,6.7,8.2h6.1
			c5.4,0,6.8-0.7,9-3.3c2-2.3,3.7-5.6,5.2-9.1L2305.4,820z"/>
		<path d="M2338.6,774.2c11.6,0,20.5,2.6,26.4,8c5,4.6,8.4,11.1,8.4,20.4c0,11.1-4.4,19.4-11.4,24.9c-6.9,5.3-15.3,7.8-25.4,7.8
			h-25.9v-2.4c6.9-0.9,7.7-1.6,7.7-9.7v-36.9c0-8.2-0.9-8.9-7.7-9.7v-2.4L2338.6,774.2L2338.6,774.2z M2330.6,821.8
			c0.1,7.3,2.2,10,9.7,10c12.4,0,19.2-9.1,19.2-27.8c0-9.3-2.6-17.2-7.1-21.6c-3.9-3.9-8.6-5.3-14.8-5.3c-3.6,0-5.3,0.7-6.1,1.4
			c-0.9,0.8-1,2.4-1,5.4L2330.6,821.8z"/>
	</g>
	<g>
		<path d="M1697.9,1190.1v22.2c0,20.4,1.8,23.9,24.9,26v8.1h-88.4v-8.1c23-2.6,24.2-6.4,24.2-26.9v-21.3h-79.2v-10.4
			c34.1-46.8,72.4-98.1,99.8-133.7h18.8v128.5h28.4v15.7L1697.9,1190.1L1697.9,1190.1z M1658.3,1089.7c-15.8,21.9-38.2,53-60.6,84.8
			h60.8L1658.3,1089.7z"/>
		<path d="M1810.9,1044.1c52.2,0,69.7,55.3,69.7,102.9c0,46.5-17.8,103.3-70.3,103.3s-69.7-56-69.7-103.1
			C1740.7,1098,1759.8,1044.1,1810.9,1044.1z M1809.9,1054.2c-21.5,0-26.4,48.2-26.4,92.2c0,44.5,6.3,93.7,27.6,93.7
			c21.2,0,26.6-48.4,26.6-93.4C1837.7,1101.4,1831.1,1054.2,1809.9,1054.2z"/>
		<path d="M1968.9,1044.1c52.2,0,69.7,55.3,69.7,102.9c0,46.5-17.8,103.3-70.3,103.3s-69.7-56-69.7-103.1
			C1898.7,1098,1917.8,1044.1,1968.9,1044.1z M1967.9,1054.2c-21.5,0-26.4,48.2-26.4,92.2c0,44.5,6.3,93.7,27.6,93.7
			c21.2,0,26.6-48.4,26.6-93.4C1995.7,1101.4,1989.2,1054.2,1967.9,1054.2z"/>
		<path d="M2127,1044.1c52.2,0,69.7,55.3,69.7,102.9c0,46.5-17.9,103.3-70.3,103.3s-69.7-56-69.7-103.1
			C2056.8,1098,2075.9,1044.1,2127,1044.1z M2126,1054.2c-21.5,0-26.4,48.2-26.4,92.2c0,44.5,6.3,93.7,27.6,93.7
			c21.2,0,26.6-48.4,26.6-93.4C2153.8,1101.4,2147.2,1054.2,2126,1054.2z"/>
		<path d="M2302.4,1178.7v67.7h-20.7v-67.7h-62.3v-18.3h62.3v-61.7h20.7v61.7h62.1v18.3H2302.4z"/>
	</g>
	<g>
		<path class="st4" d="M860.3,352c-6.9-24.1-19.5-46.3-52.4-46.7c-28.7-0.4-42.5,21-42.5,40.9c0,21.4,11.9,33.7,40.6,45.9
			c43.2,17.2,73.4,36,73.1,74.2c0,42.1-35.2,68.9-75.7,68.9c-26.4,0.4-49.3-7.7-63.9-12.6c-1.9-8.8-6.9-34-9.9-52.8l11.9-3.1
			c8.8,29.5,27.2,55.9,63.1,55.9c26-0.4,44.8-15.7,44.8-42.8c0-21.8-11.9-39-43.2-52.4c-45.5-19.5-67.7-37.5-67.7-72.3
			c0-33.7,26-62,73.8-62c25.2,0,38.3,4.6,52,6.9c2.3,14.2,4.2,29.5,7.3,49.3L860.3,352z M809.8,265.6h13l-22.2,303.7h-13.8
			L809.8,265.6z"/>
		<path class="st4" d="M1069.9,482.5c-5,17.2-11.5,36.7-15.3,50.9H910.4v-9.2c21-20.7,44-43.2,62.7-65
			c24.1-28.3,47.1-58.9,47.1-92.2c0-31.8-16.8-50.1-44.8-50.1c-26.4,0-42.8,20.7-52.8,35.6l-8.8-8l21.8-31
			c11.9-13.4,30.2-23,52.4-23c36.3,0,65,24.9,65,66.2c0,32.5-11.9,55.5-48.2,92.6c-16.4,17.2-40.6,40.6-57,56.2c2.3,0,69.6,0,73.1,0
			c20.7,0,26.4-1.9,39.4-26L1069.9,482.5z"/>
		<path class="st4" d="M1222.5,463.8v29.1c0,25.2,1.5,27.2,28.7,29.8v10.7h-89.5v-10.7c28.7-2.7,30.6-5,30.6-30.2v-28.7h-101v-11.5
			c36.3-51.6,75.7-107.5,114-160.7h17.2v153.8h37.5v18.4H1222.5z M1192.3,331.8c-24.1,35.2-50.9,74.2-77.3,113.6h77.3V331.8z"/>
		<path class="st4" d="M1364.8,290.5c36.7,0,62.4,25.6,62.4,56.6c0,11.5-3.4,22.6-10.7,31c-3.4,3.8-14.9,12.2-31.8,24.5
			c26.4,14.5,52.4,32.9,52.4,66.2c0,44.8-40.5,69.2-76.9,69.2c-42.5,0-73.8-24.5-73.8-63.1c0-19.5,8.4-30.2,17.6-37.9
			c6.1-5.4,21-15.3,34.4-23.7c-24.9-14.5-42.5-32.9-42.5-60.1C1296,319.9,1323.1,290.5,1364.8,290.5z M1364.8,525
			c25.6,0,41.3-16.8,41.3-44.8c0-30.6-25.6-45.5-56.6-60.4c-20.7,11.9-32.1,29.8-32.1,52.4C1317.4,507.4,1339.6,525,1364.8,525z
			 M1359.8,303.1c-23,0-34.8,18-34.8,39.4c0,27.9,18.7,38.3,48.6,53.9c14.9-11.5,25.2-24.9,25.2-47.4
			C1398.9,316.9,1379.7,303.1,1359.8,303.1z"/>
		<path class="st4" d="M1494.9,538.7c-13.8,0-23.3-9.9-23.3-24.5c0-13.8,9.6-24.5,23.3-24.5c13.8,0,24.1,10.7,24.1,24.5
			C1519,528.8,1508.6,538.7,1494.9,538.7z"/>
		<path class="st4" d="M1571,533.4v-10.7c42.5-2.7,44.8-4.6,44.8-33.3V342.5c0-19.5-2.7-20.3-19.5-21.8l-18.7-1.9v-9.6
			c25.2-4.2,50.5-10.3,70-18.7v198.9c0,29.1,2.3,30.6,45.1,33.3v10.7H1571z"/>
		<path class="st4" d="M1861,463.8v29.1c0,25.2,1.5,27.2,28.7,29.8v10.7h-89.5v-10.7c28.7-2.7,30.6-5,30.6-30.2v-28.7h-101v-11.5
			c36.3-51.6,75.7-107.5,114-160.7h17.2v153.8h37.5v18.4H1861z M1830.7,331.8c-24.1,35.2-50.9,74.2-77.3,113.6h77.3V331.8z"/>
		<path class="st4" d="M1928.3,336.4l18-24.1c11.1-12.2,28.7-21.8,49.3-21.8c34.8,0,57.8,21.8,57.8,50.9c0,11.5-5,20.7-11.9,28.3
			c-6.1,6.5-16.1,13.4-27.2,20.7c35.6,7.7,56.6,31,56.6,58.9c0,62.4-73.4,88.8-100.6,88.8c-18,0-34.4-7.7-39.8-13.4
			c-4.6-5-5.7-8.4-5.7-12.6c0.4-6.1,5.4-11.9,8.8-14.5c3.1-2.3,6.5-2.7,9.9,0.4c10.3,9.2,25.6,20.3,47.4,20.3
			c27.5,0,47.1-20.7,47.1-57.8c-0.4-35.2-26-49-50.5-49c-8.8,0-19.5,2.3-25.6,4.2l-2.7-11.5c34-11.1,61.6-26.4,61.6-54.7
			c0-22.6-14.5-35.6-36.7-35.6c-21.4,0-37.9,15.7-47.8,30.2L1928.3,336.4z"/>
	</g>
</g>
</svg>
